<svg xmlns="http://www.w3.org/2000/svg" xmlns:xlink="http://www.w3.org/1999/xlink" width="78" zoomAndPan="magnify" viewBox="0 0 58.5 41.25" height="55" preserveAspectRatio="xMidYMid meet" version="1.0"><defs><clipPath id="faca47783f"><path d="M 2.605469 2.699219 L 54.3125 2.699219 L 54.3125 40.511719 L 2.605469 40.511719 Z M 2.605469 2.699219 " clip-rule="nonzero"/></clipPath><clipPath id="1a800fd88a"><path d="M 52.738281 3 L 56.804688 3 L 56.804688 26.054688 L 52.738281 26.054688 Z M 52.738281 3 " clip-rule="nonzero"/></clipPath><clipPath id="26c40948bc"><path d="M 5 0.632812 L 9 0.632812 L 9 6 L 5 6 Z M 5 0.632812 " clip-rule="nonzero"/></clipPath><clipPath id="05ea9afd72"><path d="M 2.585938 16 L 4 16 L 4 17 L 2.585938 17 Z M 2.585938 16 " clip-rule="nonzero"/></clipPath></defs><g clip-path="url(#faca47783f)"><path fill="#c21858" d="M 51.75 8.835938 C 53.308594 9.167969 53.195312 16.265625 52.417969 17.484375 L 52.417969 13.382812 C 52.417969 12.496094 52.417969 11.609375 52.195312 10.832031 C 52.082031 10.167969 51.527344 9.28125 51.75 8.835938 Z M 3.355469 16.484375 C 3.464844 16.816406 3.242188 16.597656 3.242188 16.707031 C 2.910156 16.597656 2.910156 16.707031 3.132812 16.265625 C 3.355469 16.375 3.242188 16.265625 3.355469 16.484375 Z M 8.25 26.59375 C 8.804688 26.261719 9.777344 26.933594 9.695312 26.019531 C 9.804688 25.355469 9.804688 24.578125 9.917969 23.914062 C 10.472656 18.925781 10.808594 19.476562 12.585938 19.367188 C 14.8125 19.257812 15.367188 18.371094 16.148438 18.148438 C 16.703125 17.925781 17.484375 17.816406 18.039062 17.703125 C 20.488281 17.371094 24.714844 17.371094 27.273438 17.59375 C 29.386719 17.925781 31.613281 17.925781 33.835938 18.257812 C 35.0625 18.480469 34.617188 19.476562 34.171875 19.699219 L 34.058594 19.699219 L 33.613281 19.8125 C 32.835938 20.367188 33.167969 21.585938 33.28125 22.25 L 34.171875 22.359375 C 34.28125 24.910156 34.949219 24.910156 35.726562 25.464844 C 35.726562 26.429688 35.542969 33.28125 35.488281 34.464844 C 36.832031 33.421875 36.816406 22.019531 36.730469 20.03125 L 37.84375 19.921875 C 38.175781 21.804688 39.289062 22.582031 40.625 23.359375 C 41.292969 23.027344 42.070312 21.917969 43.292969 22.691406 C 44.40625 23.46875 44.183594 23.914062 44.183594 25.574219 C 44.183594 27.125 44.804688 37.265625 44.359375 38.582031 C 43.707031 40.503906 35.128906 39.402344 34.238281 39.179688 C 34.683594 39.957031 48.398438 40.941406 49.511719 40.722656 C 49.179688 39.5 47.746094 34.441406 47.410156 33.113281 C 46.742188 30.230469 46.519531 25.90625 47.078125 22.914062 C 47.1875 21.804688 47.632812 22.472656 47.746094 21.472656 C 48.1875 21.585938 48.1875 21.585938 48.410156 21.140625 C 48.632812 20.917969 48.746094 20.585938 48.632812 20.253906 C 48.632812 20.03125 48.523438 19.476562 48.410156 19.367188 C 48.078125 18.925781 46.964844 19.144531 48.1875 16.375 C 50.414062 16.375 50.75 17.59375 51.414062 19.476562 C 51.414062 21.25 51.527344 24.246094 52.640625 24.910156 C 53.417969 24.464844 53.640625 23.359375 53.75 22.25 C 53.863281 21.804688 53.863281 21.03125 53.863281 20.476562 C 53.863281 19.921875 53.640625 19.367188 53.640625 18.8125 L 54.085938 18.703125 C 54.085938 17.371094 54.308594 15.929688 54.308594 14.601562 C 54.308594 13.160156 54.195312 11.71875 54.195312 10.390625 C 53.863281 10.5 53.75 10.609375 53.417969 10.832031 C 53.417969 10.609375 53.640625 9.058594 53.75 8.949219 C 53.976562 8.394531 54.195312 9.058594 53.863281 7.507812 C 53.863281 6.84375 53.640625 4.183594 52.640625 4.734375 C 52.640625 4.183594 52.75 3.960938 52.863281 3.515625 C 51.636719 4.625 51.859375 8.28125 51.304688 9.503906 C 50.859375 9.058594 50.75 8.617188 50.082031 9.058594 C 47.078125 10.054688 44.945312 8.585938 42.496094 6.148438 C 42.496094 5.039062 42.878906 2.691406 41.78125 2.707031 C 40.679688 2.722656 41.34375 6.789062 41.214844 8.503906 C 42.4375 8.0625 45.132812 8.984375 45.851562 10.722656 C 46.410156 13.605469 42.515625 10.5 41.179688 12.382812 C 41.738281 12.273438 42.738281 12.164062 43.960938 12.71875 C 46.855469 14.269531 46.632812 18.257812 44.296875 19.921875 C 42.515625 21.25 40.066406 20.808594 38.730469 19.476562 C 36.507812 17.039062 37.730469 14.601562 38.175781 13.824219 C 37.398438 14.15625 36.507812 14.710938 35.617188 14.933594 C 34.617188 15.265625 33.835938 15.488281 32.726562 15.597656 C 29.832031 16.152344 22.042969 16.929688 19.261719 16.375 C 16.925781 15.929688 15.925781 14.933594 16.480469 12.382812 C 20.597656 12.382812 23.601562 12.605469 27.71875 12.050781 C 29.832031 11.71875 38.730469 10.054688 39.84375 8.394531 C 34.058594 10.722656 22.15625 11.609375 16.035156 11.609375 C 13.253906 7.0625 11.253906 8.949219 9.804688 7.507812 C 9.136719 6.953125 9.027344 6.175781 8.804688 5.402344 C 8.695312 5.070312 8.804688 5.402344 8.695312 5.179688 C 7.914062 6.398438 8.027344 6.175781 8.027344 7.839844 C 7.691406 7.617188 7.582031 7.617188 7.246094 7.507812 C 7.246094 8.394531 7.136719 8.726562 6.355469 8.949219 C 6.132812 9.058594 6.246094 8.949219 6.132812 9.058594 C 6.800781 9.835938 7.804688 10.054688 8.25 8.835938 C 8.582031 9.167969 8.359375 9.058594 8.695312 9.167969 C 9.136719 8.726562 10.917969 8.503906 11.699219 8.726562 C 13.144531 9.167969 12.808594 9.613281 13.253906 10.832031 C 15.480469 20.808594 14.589844 14.492188 10.140625 18.925781 C 9.359375 19.589844 9.582031 20.03125 9.136719 20.699219 C 8.917969 20.476562 8.804688 20.253906 8.582031 20.03125 L 8.359375 20.476562 C 9.027344 21.25 9.25 21.472656 9.027344 22.691406 C 8.695312 23.914062 6.46875 24.246094 5.914062 23.136719 C 5.46875 22.472656 5.46875 21.363281 6.023438 20.808594 C 6.246094 20.585938 6.578125 20.367188 7.023438 20.253906 C 7.691406 20.144531 8.027344 20.476562 8.027344 19.699219 C 6.800781 19.589844 6.578125 19.921875 5.914062 20.253906 C 6.023438 19.589844 6.578125 19.144531 7.246094 19.035156 C 8.027344 18.925781 8.695312 19.257812 9.136719 19.589844 C 9.027344 19.367188 8.804688 19.144531 8.582031 19.035156 C 7.691406 18.59375 6.691406 18.703125 5.914062 19.035156 C 5.023438 17.816406 5.355469 14.824219 5.246094 12.828125 C 5.132812 11.71875 5.132812 10.609375 5.132812 9.503906 C 5.132812 8.394531 4.910156 7.285156 5.355469 6.398438 C 4.578125 6.621094 4.578125 7.285156 4.6875 8.28125 L 5.023438 15.488281 C 4.800781 15.046875 4.6875 14.601562 4.578125 14.046875 C 3.574219 14.601562 1.796875 16.597656 3.019531 17.152344 C 3.910156 17.484375 3.464844 15.710938 4.464844 14.933594 C 4.464844 16.597656 4.464844 19.589844 4.578125 21.140625 C 4.800781 22.914062 5 24.675781 5.113281 26.5625 C 5.761719 26.496094 6.140625 26.550781 6.800781 26.574219 C 6.761719 27.796875 6.714844 30.007812 6.75 31.242188 C 6.792969 31.25 7.140625 31.253906 7.183594 31.257812 C 7.226562 31.265625 7.125 38.40625 7.425781 38.398438 C 7.675781 38.394531 7.5 31.28125 7.589844 31.28125 C 7.882812 31.277344 7.875 31.261719 8.085938 31.296875 C 8.164062 29.523438 8.222656 28.644531 8.25 26.59375 " fill-opacity="1" fill-rule="evenodd"/></g><g clip-path="url(#1a800fd88a)"><path fill="#c21858" d="M 54.976562 25.574219 C 57.3125 23.246094 56.867188 11.386719 56.535156 8.617188 C 56.308594 6.621094 55.644531 2.074219 53.195312 3.183594 L 53.417969 3.292969 C 53.75 3.628906 53.863281 3.738281 54.085938 4.292969 C 54.195312 4.847656 54.308594 5.289062 54.417969 5.84375 C 55.199219 9.28125 55.644531 20.917969 53.976562 24.464844 C 53.53125 25.355469 52.75 25.464844 52.75 25.464844 C 53.417969 25.90625 54.085938 26.460938 54.976562 25.574219 " fill-opacity="1" fill-rule="evenodd"/></g><path fill="#c21858" d="M 41.402344 30.121094 C 41.402344 30.675781 41.625 31.007812 41.957031 31.226562 C 41.738281 31.5625 41.738281 31.78125 41.738281 32.335938 C 41.738281 34.109375 41.402344 35.328125 42.847656 34.886719 C 43.070312 34.332031 42.960938 32.335938 42.960938 31.5625 C 43.183594 31.117188 44.40625 31.226562 43.628906 29.566406 L 43.515625 29.675781 L 43.515625 29.789062 L 43.292969 30.230469 C 43.183594 30.339844 42.960938 30.453125 42.738281 30.5625 C 42.070312 30.675781 41.847656 30.339844 41.402344 30.121094 " fill-opacity="1" fill-rule="evenodd"/><g clip-path="url(#26c40948bc)"><path fill="#c21858" d="M 5.800781 1.078125 C 6.246094 1.300781 6.800781 1.1875 7.46875 1.1875 L 7.023438 1.519531 L 7.023438 5.289062 C 7.691406 5.289062 8.582031 5.289062 8.804688 4.625 C 8.582031 4.515625 8.582031 4.515625 8.359375 4.402344 L 7.914062 4.292969 L 7.804688 4.292969 L 7.804688 0.855469 C 7.246094 0.746094 6.691406 0.632812 6.132812 0.746094 C 5.691406 0.96875 5.914062 0.746094 5.800781 1.078125 " fill-opacity="1" fill-rule="evenodd"/></g><path fill="#c21858" d="M 42.960938 28.566406 C 42.960938 27.792969 42.960938 27.015625 42.960938 26.238281 C 42.960938 25.464844 43.183594 24.578125 42.292969 24.6875 C 41.625 24.800781 41.847656 25.6875 41.847656 26.460938 C 41.847656 27.238281 41.847656 27.902344 41.847656 28.679688 L 42.960938 28.566406 " fill-opacity="1" fill-rule="evenodd"/><g clip-path="url(#05ea9afd72)"><path fill="#c21858" d="M 3.242188 16.707031 C 3.242188 16.597656 3.464844 16.816406 3.355469 16.484375 C 3.242188 16.265625 3.355469 16.375 3.132812 16.265625 C 2.910156 16.707031 2.910156 16.597656 3.242188 16.707031 " fill-opacity="1" fill-rule="evenodd"/></g><path fill="#c21858" d="M 7.402344 36.117188 C 7.464844 36.117188 7.515625 36.277344 7.515625 36.472656 C 7.515625 36.667969 7.464844 36.828125 7.402344 36.828125 C 7.339844 36.828125 7.289062 36.667969 7.289062 36.472656 C 7.289062 36.277344 7.339844 36.117188 7.402344 36.117188 " fill-opacity="1" fill-rule="evenodd"/></svg>