<svg version="1.2" xmlns="http://www.w3.org/2000/svg" viewBox="0 0 1773 700" width="190" height="85">
	<title>Logo-ai</title>
	<style>
		tspan { white-space:pre } 
		.s0 { fill: #dc642b } 
		.s1 { fill: #000000;stroke: #000000;stroke-miterlimit:10 } 
		.s2 { fill: #000000 } 
		.t3 { font-size: 161px;fill: #000000;font-family: "Asleepytiming" } 
		.t4 { font-size: 71px;fill: #000000;font-family: "Raleway" } 
		.s5 { fill: none;stroke: #000000;stroke-miterlimit:10;stroke-width: 2 } 
		.t6 { font-size: 42px;fill: #000000;font-family: "Asleepytiming" } 
		.t7 { font-size: 19px;fill: #000000;font-family: "Raleway" } 
	</style>
	<g id="Layer 1">
		<g id="&lt;Group&gt;">
			<g id="&lt;Group&gt;">
				<path id="&lt;Compound Path&gt;" fill-rule="evenodd" class="s0" d="m288.7 371.4q6.4 7.9 16.3 12.7 9.8 4.7 21 4.7h84.2v16.1h-84.2q-13.5 0-25.4-5.2-11.9-5.3-20.9-14.3-9-9-14.1-20.9-5.2-11.9-5.2-25.5v-45.9q0-13.5 5.2-25.6 5.1-12 14.1-21.1 9-9.2 20.9-14.5 11.9-5.3 25.4-5.3h46.5q14.7 0 24 6.4 9.3 6.3 12.2 15.9 2.9 9.5-1.2 20.6-4.1 11-15.9 20.4zm-12.3-33.2q0 5 1.2 9.8 1.1 4.9 3.2 8.7l101.5-79.5q7.1-5.5 9.7-11.6 2.7-6 1.3-11-1.3-5-6.6-8.4-5.3-3.4-14.1-3.4h-46.5q-10.3 0-19.4 4-9.1 4-15.9 10.7-6.8 6.8-10.6 15.9-3.8 9.1-3.8 19.7z"/>
				<path id="&lt;Compound Path&gt;" fill-rule="evenodd" class="s0" d="m451.7 371.4q6.4 7.9 16.3 12.7 9.8 4.7 21 4.7h84.2v16.1h-84.2q-13.5 0-25.4-5.2-11.9-5.3-20.9-14.3-9-9-14.1-20.9-5.2-11.9-5.2-25.5v-45.9q0-13.5 5.2-25.6 5.1-12 14.1-21.1 9-9.2 20.9-14.5 11.9-5.3 25.4-5.3h46.5q14.7 0 24 6.4 9.3 6.3 12.2 15.9 2.9 9.5-1.2 20.6-4.1 11-15.9 20.4zm-12.3-33.2q0 5 1.2 9.8 1.1 4.9 3.2 8.7l101.5-79.5q7.1-5.5 9.7-11.6 2.7-6 1.3-11-1.3-5-6.6-8.4-5.3-3.4-14.1-3.4h-46.5q-10.3 0-19.4 4-9.1 4-15.9 10.7-6.8 6.8-10.6 15.9-3.8 9.1-3.8 19.7z"/>
				<path id="&lt;Compound Path&gt;" fill-rule="evenodd" class="s0" d="m719.1 181.6h15.9v223.3h-91.9q-26.4 0-41.6-14.1-15.1-14.1-15.1-38.5v-66.8q0-12.4 5-23.1 5-10.7 13.7-18.7 8.7-7.9 20.4-12.5 11.8-4.6 25.4-4.6h68.2zm0 61.2h-68.2q-10.1 0-18.9 3.4-8.8 3.4-15.4 9.3-6.6 5.9-10.5 13.5-3.8 7.7-3.8 16.5v66.8q0 17.4 10.7 26.9 10.8 9.6 30.2 9.6h75.9z"/>
				<path id="&lt;Compound Path&gt;" fill-rule="evenodd" class="s0" d="m884.2 371.4q6.4 7.9 16.3 12.7 9.9 4.7 21 4.7h84.2v16.1h-84.2q-13.5 0-25.4-5.2-11.9-5.3-20.9-14.3-9-9-14.1-20.9-5.2-11.9-5.2-25.5v-45.9q0-13.5 5.2-25.6 5.1-12 14.1-21.1 9-9.2 20.9-14.5 11.9-5.3 25.4-5.3h46.5q14.7 0 24 6.4 9.3 6.3 12.2 15.9 3 9.5-1.2 20.6-4.1 11-15.8 20.4zm-12.4-33.2q0 5 1.2 9.8 1.1 4.9 3.2 8.7l101.5-79.5q7.1-5.5 9.7-11.6 2.7-6 1.4-11-1.4-5-6.7-8.4-5.3-3.4-14.1-3.4h-46.5q-10.3 0-19.4 4-9.1 4-15.9 10.7-6.8 6.8-10.6 15.9-3.8 9.1-3.8 19.7z"/>
				<g id="&lt;Group&gt;">
					<path id="&lt;Compound Path&gt;" class="s1" d="m1019.5 274h52.4q-11.3 4.6-15.7 10.3-4.4 5.8-4.4 13.5 0 12.4 6.9 41.6 7 29.1 18.5 42.8 7.1 8.2 13.8 8.2 5.2 0 9.5-4.5 7.5-7.9 13.7-30.5 6.1-22.6 6.1-48.4 0-15.3-4-21.9-4-6.5-14.8-11.1h49.1q-10.4 4.9-13.7 9.9-3.3 5-3.3 15.7 0 16.2 2.7 34.2 2.9 17.9 8 32 3.8 9.9 7.1 14.9 3.4 4.9 7 7.2 3.6 2.2 7 2.2 4.1 0 7.6-2.1 3.5-2.1 8-9 4.4-7 9.3-22.7 4.9-15.6 8.2-36.9 2.6-16.2 2.6-24.1 0-6.6-3.8-11.7-3.8-5-13.6-9.6h48.3q-9.1 5.3-12.7 11.3-3.7 5.9-6.4 22.5-4.9 30.6-10.4 49.4-5.6 18.8-12.2 29.7-6.6 11.1-12.4 15-5.8 3.8-12.2 3.8-10.2 0-18.4-8.7-11.2-11.8-19.5-44-6.5 30.2-19.1 44.4-7.5 8.3-18.1 8.3-5.8 0-10.9-2.5-5.1-2.5-10.3-8.2-5.2-5.8-11.6-18.7-6.3-12.9-11.9-35.5-3-12.6-6.5-35.3-2.4-16.3-5.7-21.2-3.3-5-14.2-10.3z"/>
					<path id="&lt;Compound Path&gt;" fill-rule="evenodd" class="s1" d="m1311.3 405q-23.7 0-42-14.1-25.6-19.8-25.6-52.4 0-18.8 8.9-34.2 8.8-15.4 25-24.1 16.1-8.6 33.7-8.6 17.6 0 33.7 8.6 16.1 8.7 25 24.1 8.9 15.4 8.9 34.2 0 32.6-25.5 52.4-18.3 14.1-42.1 14.1zm0-15.2q21.9 0 37.1-15.4 15.2-15.4 15.2-36.8 0-21.1-15.1-35.9-15-14.8-37.2-14.8-22.2 0-37.2 14.8-15 14.8-15 35.9 0 21.4 15.2 36.8 15.1 15.4 37 15.4zm0-40.2q-4.8 0-8.2-3.6-3.5-3.5-3.5-8.4 0-4.8 3.5-8.4 3.4-3.5 8.2-3.5 4.9 0 8.3 3.5 3.4 3.6 3.4 8.4 0 4.9-3.4 8.4-3.4 3.6-8.3 3.6z"/>
					<path id="&lt;Compound Path&gt;" class="s1" d="m1424.3 270.3v22.7q17.7-21.7 40.5-21.7 16.1 0 26.6 10.5 10.4 10.6 10.4 27.3 0 15.9-9.9 26.4-10 10.5-23.6 10.5-12.4 0-20.3-7.6-8-7.7-8-18.3 0-7.6 4.2-12.3 4.3-4.6 10.6-4.6 5.5 0 8.8 3 3.4 3.1 3.4 7.4 0 4.5-2.9 7.2-2.8 2.6-8.4 2.6-1.9 0-3.5-0.4 1.4 5 5.7 8.1 4.2 3.1 9.8 3.1 9.1 0 15.4-6.8 6.3-6.7 6.3-18.1 0-10.6-6.9-17.5-6.9-6.9-16.9-6.9-16 0-28.5 14-12.5 14-12.5 38.7v30.1q0 8.4 0.9 12.3 0.8 3.9 3.2 7.6 2.4 3.8 6.7 7.6 4.3 3.8 10.8 6.8h-57.6q10-4.9 14.8-10.3 3.3-4.1 4.8-10.4 1.2-4.6 1.2-14.4v-62q0-9.4-1-13.2-1-3.9-3.5-6.9-3.3-4.2-12.6-10.5 19.5-0.4 32-4z"/>
					<path id="&lt;Compound Path&gt;" class="s1" d="m1577.2 276.7h69.1l-19.7 7.8q-4.7 2.1-10 5.4-5.2 3.2-9.4 6.9l-27.6 24.2 28.9 39.5q9.2 12.6 13.1 16.8 5.3 6 13.2 12 7.9 6 20.7 12.7h-64.7q7.8-4.6 10.9-8.5 3.1-3.9 3.1-7.9 0-2.3-1-4.7-1.2-2.6-4.8-7.5l-31.3-41.9-26.3 23.5v16q0 13.3 4.7 20.2 4.7 6.8 15.7 10.8h-53.4q11.3-4.4 14.7-9.2 3.4-4.7 3.4-15.7v-122.5q0-11.9-1.5-18-1.4-6-5.8-10.6-4.5-4.6-11.8-6.6 19.4-4.9 28.4-10.8 9.1-5.9 16.5-16.8-6.1 15.8-8.5 28.7-2.4 12.8-2.4 29.6v87.5l39.8-35q6.9-6 6.9-11.8 0-8-10.9-14.1z"/>
				</g>
				<path id="&lt;Compound Path&gt;" fill-rule="evenodd" class="s2" d="m590 544.7q-2.1 3.5-5.6 6-3.5 2.6-8.2 4.1-4.8 1.4-10.2 1.4h-15.9q-5.5 0-10.2-1.4-4.8-1.5-8.3-4.1-3.5-2.5-5.5-6-2.1-3.4-2.1-7.4v-23.3q0-3.9 2.1-7.4 2-3.4 5.5-6 3.5-2.6 8.3-4.1 4.7-1.5 10.2-1.5h15.9q5.2 0 10.4 2.1 5.1 2.1 7.5 4.5v-3.6q0-3.8-1.8-6.7-1.7-2.9-4.7-4.8-2.9-1.8-6.7-2.7-3.7-0.9-7.6-0.9h-15.2v-5.7h16.5q4.7 0 9.5 1.2 4.9 1.2 9 3.7 4.1 2.5 6.6 6.2 2.5 3.7 2.5 9v40q0 4-2 7.4zm-7.7-35.4q-1.6-2.6-4.2-4.5-2.6-1.9-6.1-3-3.5-1.2-7.4-1.2h-13.2q-3.9 0-7.4 1.2-3.5 1.1-6.1 3.1-2.6 2-4.2 4.6-1.5 2.6-1.5 5.4v21.4q0 2.9 1.5 5.5 1.6 2.6 4.2 4.6 2.6 1.9 6.1 3.1 3.5 1.1 7.4 1.1h13.2q3.9 0 7.4-1.1 3.5-1.2 6.1-3.1 2.6-2 4.2-4.6 1.6-2.6 1.6-5.5v-21.7q0-2.8-1.6-5.3z"/>
				<path id="&lt;Compound Path&gt;" fill-rule="evenodd" class="s2" d="m651.3 477.2q5.2 0 10.2 2.1 4.9 2 7.6 4.6v-20.8h8.2v74.2q0 4-2 7.4-2.1 3.5-5.6 6-3.5 2.6-8.2 4.1-4.8 1.4-10.2 1.4h-15.8q-5.4 0-10.2-1.4-4.7-1.5-8.2-4.1-3.5-2.5-5.6-6-2-3.4-2-7.4v-41.2q0-3.9 2-7.4 2.1-3.4 5.6-6 3.5-2.5 8.2-4 4.8-1.5 10.2-1.5zm-21.9 6.8q-3.5 1.1-6.1 3-2.7 1.9-4.1 4.5-1.5 2.7-1.5 5.5v39.5q0 2.8 1.5 5.4 1.4 2.6 4.1 4.5 2.6 1.9 6.1 3.1 3.5 1.1 7.4 1.1h13.4q3.8 0 7.3-1.1 3.5-1.2 6.2-3.1 2.6-1.9 4-4.5 1.5-2.6 1.5-5.4v-39.5q0-2.8-1.5-5.5-1.4-2.6-4-4.5-2.7-1.9-6.2-3-3.5-1.1-7.3-1.1h-13.4q-3.9 0-7.4 1.1z"/>
				<path id="&lt;Compound Path&gt;" class="s2" d="m702.9 477.2v79h-8.1v-79z"/>
				<path id="&lt;Compound Path&gt;" class="s2" d="m738 555.1q-4.6-1.1-8.4-3.5-3.9-2.3-6.6-5.8-2.6-3.5-2.6-8.5v-74.2h8.2v15.3h17.3v5.6h-17.3v52.3q0 3.6 1.8 6.2 1.9 2.7 4.7 4.5 2.8 1.8 6.1 2.7 3.3 0.9 6.4 0.9h8.8v5.6h-9.9q-3.9 0-8.5-1.1z"/>
				<path id="&lt;Compound Path&gt;" class="s2" d="m781.4 477.2v79h-8.1v-79z"/>
				<path id="&lt;Compound Path&gt;" fill-rule="evenodd" class="s2" d="m840.9 477.2q5.4 0 10.2 1.5 4.7 1.5 8.2 4 3.5 2.6 5.6 6 2 3.5 2 7.4v41.2q0 4-2 7.4-2.1 3.5-5.6 6-3.5 2.6-8.2 4.1-4.8 1.4-10.2 1.4h-16q-5.4 0-10.2-1.4-4.7-1.5-8.2-4.1-3.5-2.5-5.6-6-2-3.4-2-7.4v-41.2q0-3.9 2-7.4 2.1-3.4 5.6-6 3.5-2.5 8.2-4 4.8-1.5 10.2-1.5zm-21.9 6.8q-3.5 1.1-6.1 3.1-2.7 2-4.2 4.6-1.6 2.6-1.6 5.4v39.2q0 2.9 1.6 5.5 1.5 2.6 4.2 4.6 2.6 1.9 6.1 3.1 3.5 1.1 7.4 1.1h13.2q3.9 0 7.4-1.1 3.5-1.2 6.1-3.1 2.6-2 4.2-4.6 1.5-2.6 1.5-5.5v-39.2q0-2.8-1.5-5.4-1.6-2.6-4.2-4.6-2.6-2-6.1-3.1-3.5-1.1-7.4-1.1h-13.2q-3.9 0-7.4 1.1z"/>
				<path id="&lt;Compound Path&gt;" class="s2" d="m926.3 477.2q3.9 0 8.5 1.2 4.6 1.1 8.4 3.4 3.9 2.3 6.6 5.9 2.6 3.5 2.6 8.4v60.1h-8.2v-59.1q0-3.5-1.8-6.2-1.9-2.7-4.7-4.4-2.8-1.8-6.2-2.7-3.4-0.9-6.5-0.9h-13.4q-3.1 0-6.4 0.9-3.3 0.9-6.1 2.7-2.9 1.7-4.7 4.4-1.9 2.7-1.9 6.2v59.1h-8.1v-60.1q0-4.9 2.6-8.4 2.6-3.6 6.5-5.9 3.9-2.3 8.5-3.4 4.5-1.2 8.4-1.2z"/>
				<path id="&lt;Compound Path&gt;" fill-rule="evenodd" class="s2" d="m1035.8 544.7q-2 3.5-5.5 6-3.5 2.6-8.3 4.1-4.7 1.4-10.2 1.4h-15.9q-5.4 0-10.2-1.4-4.8-1.5-8.3-4.1-3.5-2.5-5.5-6-2-3.4-2-7.4v-23.3q0-3.9 2-7.4 2-3.4 5.5-6 3.5-2.6 8.3-4.1 4.8-1.5 10.2-1.5h15.9q5.3 0 10.4 2.1 5.2 2.1 7.5 4.5v-3.6q0-3.8-1.8-6.7-1.7-2.9-4.6-4.8-2.9-1.8-6.7-2.7-3.8-0.9-7.7-0.9h-15.1v-5.7h16.5q4.6 0 9.5 1.2 4.8 1.2 8.9 3.7 4.1 2.5 6.6 6.2 2.6 3.7 2.6 9v40q0 4-2.1 7.4zm-7.7-35.4q-1.5-2.6-4.1-4.5-2.7-1.9-6.2-3-3.4-1.2-7.3-1.2h-13.2q-3.9 0-7.4 1.2-3.5 1.1-6.1 3.1-2.7 2-4.2 4.6-1.6 2.6-1.6 5.4v21.4q0 2.9 1.6 5.5 1.5 2.6 4.2 4.6 2.6 1.9 6.1 3.1 3.5 1.1 7.4 1.1h13.2q3.9 0 7.3-1.1 3.5-1.2 6.2-3.1 2.6-2 4.1-4.6 1.6-2.6 1.6-5.5v-21.7q0-2.8-1.6-5.3z"/>
				<path id="&lt;Compound Path&gt;" class="s2" d="m1072.9 555.1q-4.5-1.1-8.4-3.5-3.9-2.3-6.5-5.8-2.7-3.5-2.7-8.5v-60.1h8.2v59.1q0 3.6 1.8 6.2 1.9 2.7 4.7 4.5 2.8 1.8 6.1 2.7 3.3 0.9 6.4 0.9h13.4v5.6h-14.5q-3.9 0-8.5-1.1z"/>
				<path id="&lt;Compound Path&gt;" class="s2" d="m1158.8 488.1q2.4-3.5 6.2-5.9 3.8-2.4 8.5-3.7 4.6-1.3 8.9-1.3h18.5v5.7h-17.3q-3.1 0-6.5 0.9-3.3 0.9-6.1 2.7-2.8 1.7-4.6 4.4-1.9 2.7-1.9 6.2v13.6h28.6v5.6h-28.6v39.9h-8.1v-60.1q0-4.5 2.4-8z"/>
				<path id="&lt;Compound Path&gt;" fill-rule="evenodd" class="s2" d="m1279.2 544.7q-2 3.5-5.5 6-3.5 2.6-8.3 4.1-4.7 1.4-10.2 1.4h-15.9q-5.4 0-10.2-1.4-4.7-1.5-8.2-4.1-3.5-2.5-5.6-6-2-3.4-2-7.4v-23.3q0-3.9 2-7.4 2.1-3.4 5.6-6 3.5-2.6 8.2-4.1 4.8-1.5 10.2-1.5h15.9q5.3 0 10.4 2.1 5.2 2.1 7.5 4.5v-3.6q0-3.8-1.7-6.7-1.8-2.9-4.7-4.8-2.9-1.8-6.7-2.7-3.8-0.9-7.7-0.9h-15.1v-5.7h16.5q4.7 0 9.5 1.2 4.9 1.2 8.9 3.7 4.1 2.5 6.7 6.2 2.5 3.7 2.5 9v40q0 4-2.1 7.4zm-7.6-35.4q-1.6-2.6-4.2-4.5-2.6-1.9-6.1-3-3.5-1.2-7.4-1.2h-13.2q-3.9 0-7.4 1.2-3.5 1.1-6.1 3.1-2.6 2-4.2 4.6-1.6 2.6-1.6 5.4v21.4q0 2.9 1.6 5.5 1.6 2.6 4.2 4.6 2.6 1.9 6.1 3.1 3.5 1.1 7.4 1.1h13.2q3.9 0 7.4-1.1 3.5-1.2 6.1-3.1 2.6-2 4.2-4.6 1.5-2.6 1.5-5.5v-21.7q0-2.8-1.5-5.3z"/>
				<path id="&lt;Compound Path&gt;" class="s2" d="m1321.9 505.2q-9.5 0-14.5-3.5-4.9-3.4-4.9-8.8v-3.4q0-5.9 5.9-9.1 5.9-3.2 14.1-3.2h16.3q5.8 0 9.7 1.2 3.9 1.2 6.2 3.1 2.3 1.8 3.3 3.9 1 2.1 1 4h-8.8q-0.3-2.7-2.8-4.6-2.4-1.9-8.6-1.9h-17.7q-5.1 0-7.9 2-2.8 2.1-2.8 4.6v3.1q0 3.3 2.9 5.1 2.9 1.8 7.2 1.8h20.2q5.5 0 10 1.5 4.6 1.5 8 4.1 3.4 2.6 5.2 6.1 1.9 3.4 1.9 7.4v18.7q0 4-2.1 7.4-2 3.5-5.5 6-3.5 2.6-8.2 4.1-4.8 1.4-10.2 1.4h-16q-5.4 0-10.2-1.4-4.7-1.5-8.2-4.1-3.5-2.5-5.6-6-2-3.4-2-7.4v-14.4h8.1v13.4q0 2.9 1.6 5.5 1.6 2.6 4.2 4.6 2.6 1.9 6.1 3.1 3.5 1.1 7.4 1.1h13.2q3.9 0 7.4-1.1 3.5-1.2 6.1-3.1 2.6-2 4.2-4.6 1.5-2.6 1.5-5.5v-16.9q0-2.8-1.3-5.4-1.4-2.6-3.8-4.6-2.5-2-5.9-3.1-3.4-1.1-7.2-1.1z"/>
				<path id="&lt;Compound Path&gt;" class="s2" d="m1390.8 463.1v20.9q3-3.1 8.4-4.9 5.4-1.9 9.5-1.9h12.6q3.9 0 8.5 1.2 4.6 1.1 8.4 3.4 3.9 2.3 6.6 5.9 2.6 3.5 2.6 8.4v60.1h-8.2v-59.2q0-3.5-1.8-6.2-1.9-2.7-4.7-4.5-2.8-1.7-6.1-2.6-3.3-0.8-6.4-0.8h-10.3q-3.1 0-6.4 0.8-3.3 0.9-6.1 2.6-2.9 1.8-4.7 4.5-1.9 2.7-1.9 6.2v59.2h-8.1v-93.1z"/>
				<path id="&lt;Compound Path&gt;" class="s2" d="m1473.2 477.2v79h-8.1v-79z"/>
				<path id="&lt;Compound Path&gt;" fill-rule="evenodd" class="s2" d="m1532.7 477.2q5.4 0 10.2 1.5 4.7 1.5 8.2 4 3.5 2.6 5.6 6 2 3.5 2 7.4v41.2q0 4-2 7.4-2.1 3.5-5.6 6-3.5 2.6-8.2 4.1-4.8 1.4-10.2 1.4h-16q-5.4 0-10.2-1.4-4.7-1.5-8.2-4.1-3.5-2.5-5.6-6-2-3.4-2-7.4v-41.2q0-3.9 2-7.4 2.1-3.4 5.6-6 3.5-2.5 8.2-4 4.8-1.5 10.2-1.5zm-21.9 6.8q-3.5 1.1-6.1 3.1-2.7 2-4.2 4.6-1.6 2.6-1.6 5.4v39.2q0 2.9 1.6 5.5 1.5 2.6 4.2 4.6 2.6 1.9 6.1 3.1 3.5 1.1 7.4 1.1h13.2q3.9 0 7.4-1.1 3.5-1.2 6.1-3.1 2.6-2 4.2-4.6 1.5-2.6 1.5-5.5v-39.2q0-2.8-1.5-5.4-1.6-2.6-4.2-4.6-2.6-2-6.1-3.1-3.5-1.1-7.4-1.1h-13.2q-3.9 0-7.4 1.1z"/>
				<path id="&lt;Compound Path&gt;" class="s2" d="m1618.1 477.2q3.9 0 8.5 1.2 4.6 1.1 8.4 3.4 3.9 2.3 6.6 5.9 2.6 3.5 2.6 8.4v60.1h-8.2v-59.1q0-3.5-1.8-6.2-1.9-2.7-4.7-4.4-2.8-1.8-6.2-2.7-3.4-0.9-6.5-0.9h-13.4q-3.1 0-6.4 0.9-3.3 0.9-6.2 2.7-2.8 1.7-4.6 4.4-1.9 2.7-1.9 6.2v59.1h-8.1v-60.1q0-4.9 2.6-8.4 2.6-3.6 6.5-5.9 3.9-2.3 8.5-3.4 4.5-1.2 8.4-1.2z"/>
				<g id="&lt;Group&gt;">
					<path id="&lt;Path&gt;" class="s0" d="m792.9 35.2c0 0 10.4-6.5 17.5 0l-5.8 386.6-6.5-2.6z"/>
				</g>
				<path id="&lt;Path&gt;" class="s2" d="m776.3 43c0 0 40.4 3.9 49.1 30.1 0 0 6.4 18.2-18.2 32.4 0 0-45.1 26.2-45.1 38.8 0 0-11.9 38 23 47.6 0 0 14.2 14.2 171-35.7 156.8-49.9 228.1-34 228.1-34 0 0 101.3 23.7 74.4 89.4 0 0-7.1 4.8-7.9 0 0 0 25.3-59.6-72.1-83.2 0 0-66.5-10.2-184.5 25.4 0 0-144.1 46-180.5 46.8 0 0-49.1 6.3-65-29.3 0 0-6.3-34.9 27.7-54.7 0 0 39.4-18.5 39.6-38 0 0 9.5-19-40.4-29.3z"/>
				<g id="&lt;Group&gt;">
					<path id="&lt;Compound Path&gt;" class="s0" d="m240.7 175.1v230.4h-13.9l-156.9-200.2v200.2h-16.8v-230.4h14.1l156.7 200.1v-200.1z"/>
				</g>
				<g id="&lt;Group&gt;">
					<path id="&lt;Compound Path&gt;" class="s2" d="m449.9 555.1q-4.6-1.1-8.5-3.5-3.9-2.3-6.5-5.8-2.6-3.5-2.6-8.5v-74.2h8.1v15.3h17.3v5.6h-17.3v52.3q0 3.6 1.9 6.2 1.8 2.7 4.7 4.5 2.8 1.8 6.1 2.7 3.3 0.9 6.4 0.9h8.7v5.6h-9.9q-3.9 0-8.4-1.1z"/>
					<text id="r
" style="transform: matrix(1,0,0,1,483.49,557.441)" >
						<tspan x="0" y="0" class="t3">r
</tspan>
					</text>
				</g>
			</g>
			<g id="&lt;Group&gt;">
				<text id="R
" style="transform: matrix(1,0,0,1,1653.65,258.312)" >
					<tspan x="0" y="0" class="t4">R
</tspan>
				</text>
				<path id="&lt;Path&gt;" class="s5" d="m1718.8 235c0 22.4-18.2 40.6-40.7 40.6-22.4 0-40.6-18.2-40.6-40.6 0-22.5 18.2-40.6 40.6-40.6 22.5 0 40.7 18.1 40.7 40.6z"/>
			</g>
		</g>
		<path id="&lt;Compound Path&gt;" fill-rule="evenodd" class="s0" d="m1117.4 3014.7q1.7 2.1 4.3 3.4 2.6 1.2 5.6 1.2h22.2v4.3h-22.2q-3.6 0-6.8-1.4-3.1-1.4-5.5-3.8-2.3-2.4-3.7-5.5-1.3-3.1-1.3-6.7v-12.1q0-3.6 1.3-6.8 1.4-3.1 3.7-5.6 2.4-2.4 5.5-3.8 3.2-1.3 6.8-1.3h12.2q3.9 0 6.3 1.6 2.5 1.7 3.3 4.2 0.7 2.5-0.3 5.4-1.1 2.9-4.2 5.4zm-3.3-8.7q0 1.3 0.3 2.6 0.3 1.2 0.9 2.3l26.7-21q1.9-1.5 2.6-3.1 0.7-1.6 0.3-2.9-0.3-1.3-1.7-2.2-1.4-0.9-3.7-0.9h-12.3q-2.7 0-5.1 1.1-2.4 1-4.2 2.8-1.8 1.8-2.8 4.2-1 2.4-1 5.2z"/>
		<path id="&lt;Compound Path&gt;" fill-rule="evenodd" class="s0" d="m1160.4 3014.7q1.7 2.1 4.3 3.4 2.6 1.2 5.5 1.2h22.2v4.3h-22.2q-3.5 0-6.7-1.4-3.1-1.4-5.5-3.8-2.3-2.4-3.7-5.5-1.4-3.1-1.4-6.7v-12.1q0-3.6 1.4-6.8 1.4-3.1 3.7-5.6 2.4-2.4 5.5-3.8 3.2-1.3 6.7-1.3h12.3q3.9 0 6.3 1.6 2.5 1.7 3.3 4.2 0.7 2.5-0.4 5.4-1 2.9-4.1 5.4zm-3.3-8.7q0 1.3 0.3 2.6 0.3 1.2 0.9 2.3l26.7-21q1.9-1.5 2.6-3.1 0.7-1.6 0.3-2.9-0.3-1.3-1.7-2.2-1.4-0.9-3.7-0.9h-12.3q-2.7 0-5.1 1.1-2.4 1-4.2 2.8-1.8 1.8-2.8 4.2-1 2.4-1 5.2z"/>
		<path id="&lt;Compound Path&gt;" fill-rule="evenodd" class="s0" d="m1230.9 2964.7h4.2v58.9h-24.2q-7 0-11-3.8-4-3.7-4-10.1v-17.6q0-3.3 1.3-6.1 1.4-2.9 3.7-4.9 2.2-2.1 5.3-3.3 3.2-1.2 6.7-1.2h18zm0 16.1h-18q-2.6 0-4.9 0.9-2.4 0.9-4.1 2.4-1.8 1.6-2.8 3.6-1 2-1 4.3v17.7q0 4.5 2.9 7.1 2.8 2.5 7.9 2.5h20z"/>
		<path id="&lt;Compound Path&gt;" fill-rule="evenodd" class="s0" d="m1274.5 3014.7q1.7 2.1 4.3 3.4 2.6 1.2 5.5 1.2h22.2v4.3h-22.2q-3.6 0-6.7-1.4-3.1-1.4-5.5-3.8-2.4-2.4-3.7-5.5-1.4-3.1-1.4-6.7v-12.1q0-3.6 1.4-6.8 1.3-3.1 3.7-5.6 2.4-2.4 5.5-3.8 3.1-1.3 6.7-1.3h12.3q3.8 0 6.3 1.6 2.4 1.7 3.2 4.2 0.8 2.5-0.3 5.4-1.1 2.9-4.2 5.4zm-3.2-8.7q0 1.3 0.3 2.6 0.3 1.2 0.8 2.3l26.8-21q1.8-1.5 2.5-3.1 0.7-1.6 0.4-2.9-0.4-1.3-1.7-2.2-1.4-0.9-3.8-0.9h-12.2q-2.8 0-5.2 1.1-2.4 1-4.1 2.8-1.8 1.8-2.8 4.2-1 2.4-1 5.2z"/>
		<g id="&lt;Group&gt;">
			<path id="&lt;Compound Path&gt;" class="s1" d="m1310.1 2989h13.9q-3 1.3-4.2 2.8-1.1 1.5-1.1 3.5 0 3.3 1.8 11 1.8 7.7 4.9 11.3 1.8 2.1 3.6 2.1 1.4 0 2.5-1.1 2-2.1 3.6-8.1 1.6-6 1.6-12.7 0-4.1-1-5.8-1.1-1.7-3.9-3h12.9q-2.7 1.3-3.6 2.7-0.9 1.3-0.9 4.1 0 4.3 0.7 9 0.8 4.7 2.2 8.4 0.9 2.7 1.8 4 0.9 1.3 1.9 1.9 0.9 0.6 1.8 0.6 1.1 0 2-0.6 0.9-0.5 2.1-2.4 1.2-1.8 2.5-6 1.3-4.1 2.1-9.7 0.7-4.3 0.7-6.4 0-1.7-1-3-1-1.3-3.6-2.6h12.8q-2.4 1.4-3.4 3-0.9 1.6-1.7 5.9-1.3 8.1-2.7 13.1-1.5 4.9-3.2 7.8-1.8 2.9-3.3 4-1.5 1-3.2 1-2.7 0-4.8-2.3-3-3.1-5.2-11.6-1.7 7.9-5 11.7-2 2.2-4.8 2.2-1.5 0-2.9-0.7-1.3-0.6-2.7-2.2-1.4-1.5-3-4.9-1.7-3.4-3.2-9.3-0.8-3.4-1.7-9.4-0.6-4.2-1.5-5.6-0.9-1.3-3.8-2.7z"/>
			<path id="&lt;Compound Path&gt;" fill-rule="evenodd" class="s1" d="m1387.1 3023.6q-6.3 0-11.1-3.7-6.7-5.2-6.7-13.9 0-4.9 2.3-9 2.3-4 6.6-6.3 4.3-2.3 8.9-2.3 4.6 0 8.9 2.3 4.2 2.3 6.6 6.3 2.3 4.1 2.3 9 0 8.7-6.7 13.9-4.8 3.7-11.1 3.7zm0-4q5.8 0 9.8-4.1 4-4 4-9.7 0-5.5-4-9.4-3.9-4-9.8-4-5.9 0-9.8 4-4 3.9-4 9.4 0 5.7 4 9.7 4 4.1 9.8 4.1zm0-10.6q-1.3 0-2.2-1-0.9-0.9-0.9-2.2 0-1.3 0.9-2.2 0.9-0.9 2.2-0.9 1.3 0 2.2 0.9 0.9 0.9 0.9 2.2 0 1.3-0.9 2.2-0.9 1-2.2 1z"/>
			<path id="&lt;Compound Path&gt;" class="s1" d="m1416.9 2988.1v5.9q4.7-5.7 10.7-5.7 4.2 0 7 2.8 2.7 2.8 2.7 7.2 0 4.2-2.6 7-2.6 2.7-6.2 2.7-3.3 0-5.4-2-2.1-2-2.1-4.8 0-2 1.1-3.2 1.2-1.3 2.8-1.3 1.5 0 2.4 0.8 0.9 0.9 0.9 2 0 1.2-0.8 1.9-0.8 0.7-2.2 0.7-0.5 0-0.9-0.1 0.3 1.3 1.4 2.1 1.2 0.8 2.6 0.8 2.4 0 4.1-1.8 1.7-1.7 1.7-4.7 0-2.8-1.9-4.7-1.8-1.8-4.4-1.8-4.2 0-7.5 3.7-3.3 3.7-3.3 10.2v7.9q0 2.3 0.2 3.3 0.2 1 0.9 2 0.6 1 1.7 2 1.2 1 2.9 1.8h-15.2q2.6-1.3 3.9-2.7 0.8-1.1 1.3-2.8 0.3-1.2 0.3-3.7v-16.4q0-2.5-0.3-3.5-0.3-1-0.9-1.8-0.9-1.1-3.3-2.8 5.1-0.1 8.4-1z"/>
			<path id="&lt;Compound Path&gt;" class="s1" d="m1457.2 2989.8h18.2l-5.2 2q-1.2 0.6-2.6 1.4-1.4 0.9-2.5 1.9l-7.2 6.3 7.6 10.4q2.4 3.4 3.4 4.5 1.4 1.6 3.5 3.1 2.1 1.6 5.5 3.4h-17.1q2.1-1.2 2.9-2.2 0.8-1.1 0.8-2.1 0-0.6-0.3-1.3-0.3-0.7-1.2-1.9l-8.3-11.1-6.9 6.2v4.2q0 3.5 1.2 5.3 1.2 1.8 4.2 2.9h-14.1q3-1.2 3.9-2.4 0.8-1.3 0.8-4.2v-32.3q0-3.1-0.3-4.7-0.4-1.6-1.6-2.8-1.2-1.2-3.1-1.8 5.1-1.2 7.5-2.8 2.4-1.6 4.4-4.4-1.7 4.1-2.3 7.5-0.6 3.4-0.6 7.8v23.1l10.5-9.2q1.8-1.6 1.8-3.1 0-2.2-2.9-3.7z"/>
		</g>
		<path id="&lt;Compound Path&gt;" fill-rule="evenodd" class="s2" d="m1196.9 3060.4q-0.6 0.9-1.5 1.6-0.9 0.7-2.2 1.1-1.2 0.4-2.7 0.4h-4.2q-1.4 0-2.6-0.4-1.3-0.4-2.2-1.1-0.9-0.7-1.5-1.6-0.5-0.9-0.5-1.9v-6.2q0-1 0.5-1.9 0.6-0.9 1.5-1.6 0.9-0.7 2.2-1.1 1.2-0.4 2.6-0.4h4.2q1.4 0 2.8 0.6 1.3 0.5 2 1.2v-1q0-1-0.5-1.8-0.5-0.7-1.2-1.2-0.8-0.5-1.8-0.7-1-0.3-2-0.3h-4v-1.5h4.3q1.3 0 2.5 0.4 1.3 0.3 2.4 0.9 1.1 0.7 1.7 1.7 0.7 0.9 0.7 2.3v10.6q0 1-0.5 1.9zm-2.1-9.3q-0.4-0.7-1.1-1.2-0.6-0.5-1.6-0.8-0.9-0.3-1.9-0.3h-3.5q-1 0-1.9 0.3-1 0.3-1.7 0.8-0.7 0.5-1.1 1.2-0.4 0.7-0.4 1.5v5.6q0 0.8 0.4 1.5 0.4 0.6 1.1 1.2 0.7 0.5 1.7 0.8 0.9 0.3 1.9 0.3h3.5q1 0 1.9-0.3 1-0.3 1.6-0.8 0.7-0.6 1.1-1.2 0.5-0.7 0.5-1.5v-5.7q0-0.8-0.5-1.4z"/>
		<path id="&lt;Compound Path&gt;" fill-rule="evenodd" class="s2" d="m1213 3042.6q1.4 0 2.7 0.6 1.3 0.5 2 1.2v-5.5h2.2v19.6q0 1-0.5 1.9-0.6 0.9-1.5 1.6-0.9 0.7-2.2 1.1-1.2 0.4-2.7 0.4h-4.1q-1.5 0-2.7-0.4-1.3-0.4-2.2-1.1-0.9-0.7-1.4-1.6-0.6-0.9-0.6-1.9v-10.9q0-1 0.6-1.9 0.5-0.9 1.4-1.6 0.9-0.7 2.2-1.1 1.2-0.4 2.7-0.4zm-5.8 1.8q-0.9 0.3-1.6 0.8-0.7 0.5-1.1 1.2-0.4 0.7-0.4 1.4v10.5q0 0.7 0.4 1.4 0.4 0.7 1.1 1.2 0.7 0.5 1.6 0.8 0.9 0.3 1.9 0.3h3.6q1 0 1.9-0.3 0.9-0.3 1.6-0.8 0.7-0.5 1.1-1.2 0.4-0.7 0.4-1.4v-10.5q0-0.7-0.4-1.4-0.4-0.7-1.1-1.2-0.7-0.5-1.6-0.8-0.9-0.3-1.9-0.3h-3.6q-1 0-1.9 0.3z"/>
		<path id="&lt;Compound Path&gt;" class="s2" d="m1226.7 3042.6v20.9h-2.2v-20.9z"/>
		<path id="&lt;Compound Path&gt;" class="s2" d="m1235.9 3063.2q-1.2-0.3-2.2-0.9-1-0.7-1.7-1.6-0.7-0.9-0.7-2.2v-19.6h2.1v4h4.6v1.5h-4.6v13.8q0 1 0.5 1.7 0.5 0.7 1.2 1.1 0.8 0.5 1.7 0.7 0.8 0.3 1.6 0.3h2.3v1.5h-2.6q-1 0-2.2-0.3z"/>
		<path id="&lt;Compound Path&gt;" class="s2" d="m1247.4 3042.6v20.9h-2.2v-20.9z"/>
		<path id="&lt;Compound Path&gt;" fill-rule="evenodd" class="s2" d="m1263 3042.6q1.5 0 2.7 0.4 1.3 0.4 2.2 1.1 0.9 0.7 1.5 1.6 0.5 0.9 0.5 1.9v10.9q0 1-0.5 1.9-0.6 0.9-1.5 1.6-0.9 0.7-2.2 1.1-1.2 0.4-2.7 0.4h-4.2q-1.4 0-2.7-0.4-1.2-0.4-2.1-1.1-1-0.7-1.5-1.6-0.5-0.9-0.5-1.9v-10.9q0-1 0.5-1.9 0.5-0.9 1.5-1.6 0.9-0.7 2.1-1.1 1.3-0.4 2.7-0.4zm-5.8 1.8q-0.9 0.3-1.6 0.8-0.7 0.6-1.1 1.2-0.4 0.7-0.4 1.5v10.3q0 0.8 0.4 1.5 0.4 0.6 1.1 1.2 0.7 0.5 1.6 0.8 1 0.3 2 0.3h3.5q1 0 1.9-0.3 0.9-0.3 1.6-0.8 0.7-0.6 1.1-1.2 0.4-0.7 0.4-1.5v-10.3q0-0.8-0.4-1.5-0.4-0.6-1.1-1.2-0.7-0.5-1.6-0.8-0.9-0.3-1.9-0.3h-3.5q-1 0-2 0.3z"/>
		<path id="&lt;Compound Path&gt;" class="s2" d="m1285.6 3042.6q1 0 2.2 0.3 1.2 0.3 2.2 0.9 1.1 0.7 1.7 1.6 0.7 0.9 0.7 2.2v15.9h-2.1v-15.6q0-1-0.5-1.7-0.5-0.7-1.2-1.1-0.8-0.5-1.7-0.7-0.9-0.3-1.7-0.3h-3.5q-0.8 0-1.7 0.3-0.9 0.2-1.6 0.7-0.8 0.4-1.3 1.1-0.4 0.7-0.4 1.7v15.6h-2.2v-15.9q0-1.3 0.7-2.2 0.7-0.9 1.7-1.6 1-0.6 2.2-0.9 1.2-0.3 2.3-0.3z"/>
		<path id="&lt;Compound Path&gt;" fill-rule="evenodd" class="s2" d="m1314.4 3060.4q-0.5 0.9-1.4 1.6-0.9 0.7-2.2 1.1-1.2 0.4-2.7 0.4h-4.2q-1.4 0-2.7-0.4-1.2-0.4-2.2-1.1-0.9-0.7-1.4-1.6-0.5-0.9-0.5-1.9v-6.2q0-1 0.5-1.9 0.5-0.9 1.4-1.6 1-0.7 2.2-1.1 1.3-0.4 2.7-0.4h4.2q1.4 0 2.8 0.6 1.3 0.5 1.9 1.2v-1q0-1-0.4-1.8-0.5-0.7-1.3-1.2-0.7-0.5-1.7-0.7-1-0.3-2.1-0.3h-3.9v-1.5h4.3q1.2 0 2.5 0.4 1.3 0.3 2.4 0.9 1.1 0.7 1.7 1.7 0.7 0.9 0.7 2.3v10.6q0 1-0.6 1.9zm-2-9.3q-0.4-0.7-1.1-1.2-0.7-0.5-1.6-0.8-0.9-0.3-1.9-0.3h-3.5q-1.1 0-2 0.3-0.9 0.3-1.6 0.8-0.7 0.5-1.1 1.2-0.4 0.7-0.4 1.5v5.6q0 0.8 0.4 1.5 0.4 0.6 1.1 1.2 0.7 0.5 1.6 0.8 0.9 0.3 2 0.3h3.5q1 0 1.9-0.3 0.9-0.3 1.6-0.8 0.7-0.6 1.1-1.2 0.4-0.7 0.4-1.5v-5.7q0-0.8-0.4-1.4z"/>
		<path id="&lt;Compound Path&gt;" class="s2" d="m1324.2 3063.2q-1.2-0.3-2.2-0.9-1-0.7-1.7-1.6-0.7-0.9-0.7-2.2v-15.9h2.1v15.6q0 1 0.5 1.7 0.5 0.7 1.3 1.1 0.7 0.5 1.6 0.7 0.8 0.3 1.7 0.3h3.5v1.5h-3.8q-1.1 0-2.3-0.3z"/>
		<path id="&lt;Compound Path&gt;" class="s2" d="m1346.9 3045.5q0.6-0.9 1.6-1.6 1-0.6 2.2-0.9 1.3-0.4 2.4-0.4h4.9v1.5h-4.6q-0.8 0-1.7 0.3-0.9 0.2-1.6 0.7-0.7 0.4-1.2 1.1-0.5 0.7-0.5 1.7v3.6h7.5v1.4h-7.5v10.6h-2.2v-15.9q0-1.2 0.7-2.1z"/>
		<path id="&lt;Compound Path&gt;" fill-rule="evenodd" class="s2" d="m1378.6 3060.4q-0.5 0.9-1.4 1.6-0.9 0.7-2.2 1.1-1.3 0.4-2.7 0.4h-4.2q-1.4 0-2.7-0.4-1.2-0.4-2.2-1.1-0.9-0.7-1.4-1.6-0.6-0.9-0.6-1.9v-6.2q0-1 0.6-1.9 0.5-0.9 1.4-1.6 1-0.7 2.2-1.1 1.3-0.4 2.7-0.4h4.2q1.4 0 2.8 0.6 1.3 0.5 1.9 1.2v-1q0-1-0.4-1.8-0.5-0.7-1.3-1.2-0.7-0.5-1.7-0.7-1-0.3-2.1-0.3h-4v-1.5h4.4q1.2 0 2.5 0.4 1.3 0.3 2.4 0.9 1 0.7 1.7 1.7 0.7 0.9 0.7 2.3v10.6q0 1-0.6 1.9zm-2-9.3q-0.4-0.7-1.1-1.2-0.7-0.5-1.6-0.8-0.9-0.3-1.9-0.3h-3.5q-1.1 0-2 0.3-0.9 0.3-1.6 0.8-0.7 0.5-1.1 1.2-0.4 0.7-0.4 1.5v5.6q0 0.8 0.4 1.5 0.4 0.6 1.1 1.2 0.7 0.5 1.6 0.8 0.9 0.3 2 0.3h3.5q1 0 1.9-0.3 0.9-0.3 1.6-0.8 0.7-0.6 1.1-1.2 0.4-0.7 0.4-1.5v-5.7q0-0.8-0.4-1.4z"/>
		<path id="&lt;Compound Path&gt;" class="s2" d="m1389.9 3050q-2.5 0-3.8-0.9-1.3-0.9-1.3-2.3v-0.9q0-1.6 1.5-2.4 1.6-0.9 3.7-0.9h4.3q1.6 0 2.6 0.4 1 0.3 1.6 0.8 0.7 0.4 0.9 1 0.3 0.6 0.3 1h-2.3q-0.1-0.7-0.8-1.2-0.6-0.5-2.3-0.5h-4.6q-1.4 0-2.1 0.6-0.7 0.5-0.7 1.2v0.8q0 0.8 0.7 1.3 0.8 0.5 1.9 0.5h5.4q1.4 0 2.6 0.4 1.2 0.4 2.1 1.1 0.9 0.7 1.4 1.6 0.5 0.9 0.5 1.9v5q0 1-0.6 1.9-0.5 0.9-1.4 1.6-1 0.7-2.2 1.1-1.3 0.4-2.7 0.4h-4.2q-1.4 0-2.7-0.4-1.2-0.4-2.2-1.1-0.9-0.7-1.4-1.6-0.6-0.9-0.6-1.9v-3.8h2.2v3.5q0 0.8 0.4 1.5 0.4 0.6 1.1 1.2 0.7 0.5 1.6 0.8 0.9 0.3 2 0.3h3.4q1.1 0 2-0.3 0.9-0.3 1.6-0.8 0.7-0.6 1.1-1.2 0.4-0.7 0.4-1.5v-4.4q0-0.8-0.3-1.5-0.4-0.7-1-1.2-0.7-0.5-1.6-0.8-0.9-0.3-1.9-0.3z"/>
		<path id="&lt;Compound Path&gt;" class="s2" d="m1408.1 3038.9v5.5q0.7-0.8 2.2-1.3 1.4-0.5 2.5-0.5h3.3q1 0 2.2 0.3 1.2 0.3 2.3 0.9 1 0.7 1.7 1.6 0.7 0.9 0.7 2.2v15.9h-2.2v-15.7q0-0.9-0.5-1.6-0.4-0.7-1.2-1.2-0.7-0.4-1.6-0.7-0.9-0.2-1.7-0.2h-2.7q-0.8 0-1.7 0.2-0.9 0.3-1.6 0.7-0.8 0.5-1.2 1.2-0.5 0.7-0.5 1.6v15.7h-2.2v-24.6z"/>
		<path id="&lt;Compound Path&gt;" class="s2" d="m1429.8 3042.6v20.9h-2.2v-20.9z"/>
		<path id="&lt;Compound Path&gt;" fill-rule="evenodd" class="s2" d="m1445.5 3042.6q1.4 0 2.7 0.4 1.2 0.4 2.1 1.1 1 0.7 1.5 1.6 0.5 0.9 0.5 1.9v10.9q0 1-0.5 1.9-0.5 0.9-1.5 1.6-0.9 0.7-2.1 1.1-1.3 0.4-2.7 0.4h-4.2q-1.5 0-2.7-0.4-1.3-0.4-2.2-1.1-0.9-0.7-1.5-1.6-0.5-0.9-0.5-1.9v-10.9q0-1 0.5-1.9 0.6-0.9 1.5-1.6 0.9-0.7 2.2-1.1 1.2-0.4 2.7-0.4zm-5.8 1.8q-0.9 0.3-1.6 0.8-0.7 0.6-1.1 1.2-0.4 0.7-0.4 1.5v10.3q0 0.8 0.4 1.5 0.4 0.6 1.1 1.2 0.7 0.5 1.6 0.8 0.9 0.3 1.9 0.3h3.5q1 0 2-0.3 0.9-0.3 1.6-0.8 0.7-0.6 1.1-1.2 0.4-0.7 0.4-1.5v-10.3q0-0.8-0.4-1.5-0.4-0.6-1.1-1.2-0.7-0.5-1.6-0.8-1-0.3-2-0.3h-3.5q-1 0-1.9 0.3z"/>
		<path id="&lt;Compound Path&gt;" class="s2" d="m1468 3042.6q1 0 2.2 0.3 1.2 0.3 2.3 0.9 1 0.7 1.7 1.6 0.7 0.9 0.7 2.2v15.9h-2.2v-15.6q0-1-0.5-1.7-0.4-0.7-1.2-1.1-0.7-0.5-1.6-0.7-0.9-0.3-1.7-0.3h-3.6q-0.8 0-1.7 0.3-0.8 0.2-1.6 0.7-0.7 0.4-1.2 1.1-0.5 0.7-0.5 1.7v15.6h-2.2v-15.9q0-1.3 0.7-2.2 0.7-0.9 1.8-1.6 1-0.6 2.2-0.9 1.2-0.3 2.2-0.3z"/>
		<g id="&lt;Group&gt;">
			<path id="&lt;Path&gt;" class="s0" d="m1250.4 2926.1c0 0 2.7-1.8 4.6 0l-1.5 101.9-1.7-0.7z"/>
		</g>
		<path id="&lt;Path&gt;" class="s2" d="m1246 2928.1c0 0 10.7 1.1 13 7.9 0 0 1.6 4.9-4.8 8.6 0 0-11.9 6.9-11.9 10.2 0 0-3.2 10.1 6 12.6 0 0 3.8 3.7 45.1-9.4 41.4-13.2 60.2-9 60.2-9 0 0 26.7 6.3 19.6 23.6 0 0-1.9 1.2-2.1 0 0 0 6.7-15.7-19-22 0 0-17.5-2.6-48.7 6.8 0 0-38 12.1-47.6 12.3 0 0-12.9 1.6-17.1-7.8 0 0-1.7-9.1 7.3-14.4 0 0 10.4-4.9 10.5-10 0 0 2.5-5-10.7-7.7z"/>
		<g id="&lt;Group&gt;">
			<path id="&lt;Compound Path&gt;" class="s0" d="m1104.8 2962.9v60.8h-3.7l-41.4-52.8v52.8h-4.4v-60.8h3.7l41.3 52.8v-52.8z"/>
		</g>
		<path id="&lt;Compound Path&gt;" class="s2" d="m1159.9 3063.2q-1.2-0.3-2.2-0.9-1-0.7-1.7-1.6-0.7-0.9-0.7-2.2v-19.6h2.1v4h4.6v1.5h-4.6v13.8q0 1 0.5 1.7 0.5 0.7 1.3 1.1 0.7 0.5 1.6 0.7 0.8 0.3 1.7 0.3h2.3v1.5h-2.7q-1 0-2.2-0.3z"/>
		<text id="r
" style="transform: matrix(1,0,0,1,1168.787,3063.787)" >
			<tspan x="0" y="0" class="t6">r
</tspan>
		</text>
		<text id="R
" style="transform: matrix(1,0,0,1,1477.377,2984.902)" >
			<tspan x="0" y="0" class="t7">R
</tspan>
		</text>
		<path id="&lt;Path&gt;" class="s5" d="m1494.5 2978.8c0 5.9-4.8 10.7-10.7 10.7-5.9 0-10.7-4.8-10.7-10.7 0-6 4.8-10.8 10.7-10.8 5.9 0 10.7 4.8 10.7 10.8z"/>
	</g>
</svg>