<?xml version="1.0" encoding="UTF-8"?>
<!DOCTYPE svg PUBLIC "-//W3C//DTD SVG 1.1//EN" "http://www.w3.org/Graphics/SVG/1.1/DTD/svg11.dtd">
<svg xmlns="http://www.w3.org/2000/svg" version="1.1" width="1773px" height="599px" style="shape-rendering:geometricPrecision; text-rendering:geometricPrecision; image-rendering:optimizeQuality; fill-rule:evenodd; clip-rule:evenodd" xmlns:xlink="http://www.w3.org/1999/xlink">
<g><path style="opacity:0.978" fill="#d9632a" d="M 807.5,52.5 C 801.412,48.9185 795.079,45.9185 788.5,43.5C 788.207,39.5633 788.54,35.73 789.5,32C 795.315,28.9977 801.149,28.8311 807,31.5C 807.5,38.4921 807.666,45.4921 807.5,52.5 Z"/></g>
<g><path style="opacity:0.908" fill="#000000" d="M 788.5,43.5 C 795.079,45.9185 801.412,48.9185 807.5,52.5C 822.14,61.1164 826.64,73.4498 821,89.5C 817.619,95.7152 812.786,100.382 806.5,103.5C 800.286,106.433 794.619,110.1 789.5,114.5C 778.315,121.18 768.482,129.514 760,139.5C 754.734,153.169 755.401,166.502 762,179.5C 769.848,188.341 779.681,193.341 791.5,194.5C 796.263,194.774 800.93,194.441 805.5,193.5C 829.806,190.257 853.806,185.424 877.5,179C 917.012,167.941 956.345,156.274 995.5,144C 1047.63,128.95 1100.8,120.45 1155,118.5C 1189.77,117.867 1220.93,128.033 1248.5,149C 1269.74,166.455 1275.4,187.955 1265.5,213.5C 1263.13,215.395 1260.47,215.895 1257.5,215C 1264.4,186.701 1255.73,164.368 1231.5,148C 1201.09,129.031 1168.09,122.364 1132.5,128C 1091.1,131.234 1050.43,138.567 1010.5,150C 950.898,169.317 890.564,185.984 829.5,200C 821.564,201.492 813.564,202.325 805.5,202.5C 800.833,202.5 796.167,202.5 791.5,202.5C 770.401,201.052 754.568,191.385 744,173.5C 741.002,150.338 748.835,131.838 767.5,118C 775.023,114.074 782.356,109.908 789.5,105.5C 793.898,103.275 797.898,100.441 801.5,97C 804.2,95.1433 805.866,92.6433 806.5,89.5C 808.223,87.7472 809.723,85.7472 811,83.5C 813.58,77.7104 813.58,72.0438 811,66.5C 809.961,65.2899 808.794,64.2899 807.5,63.5C 806.746,60.909 805.079,59.0757 802.5,58C 798.376,55.6028 794.043,53.7694 789.5,52.5C 783.89,50.8473 778.223,49.3473 772.5,48C 771.565,45.6194 771.232,43.1194 771.5,40.5C 777.313,40.7038 782.98,41.7038 788.5,43.5 Z"/></g>
<g><path style="opacity:0.994" fill="#da632a" d="M 789.5,52.5 C 794.043,53.7694 798.376,55.6028 802.5,58C 805.079,59.0757 806.746,60.909 807.5,63.5C 807.632,72.1911 807.299,80.8577 806.5,89.5C 805.866,92.6433 804.2,95.1433 801.5,97C 797.898,100.441 793.898,103.275 789.5,105.5C 789.5,87.8333 789.5,70.1667 789.5,52.5 Z"/></g>
<g><path style="opacity:0.99" fill="#db632a" d="M 806.5,103.5 C 806.196,133.5 805.862,163.5 805.5,193.5C 800.93,194.441 796.263,194.774 791.5,194.5C 790.833,167.833 790.167,141.167 789.5,114.5C 794.619,110.1 800.286,106.433 806.5,103.5 Z"/></g>
<g><path style="opacity:0.984" fill="#db632b" d="M 32.5,175.5 C 37.8437,175.334 43.1771,175.501 48.5,176C 101.695,242.894 154.528,310.061 207,377.5C 207.5,310.167 207.667,242.834 207.5,175.5C 213.5,175.5 219.5,175.5 225.5,175.5C 225.5,254.167 225.5,332.833 225.5,411.5C 220.125,411.828 214.792,411.495 209.5,410.5C 156.809,343.643 104.309,276.643 52,209.5C 51.5,276.833 51.3333,344.166 51.5,411.5C 45.1667,411.5 38.8333,411.5 32.5,411.5C 32.5,332.833 32.5,254.167 32.5,175.5 Z"/></g>
<g><path style="opacity:0.985" fill="#db632b" d="M 713.5,181.5 C 719.167,181.5 724.833,181.5 730.5,181.5C 730.5,258.167 730.5,334.833 730.5,411.5C 697.498,411.667 664.498,411.5 631.5,411C 599.485,409.647 581.652,393.147 578,361.5C 577.06,333.136 577.394,304.802 579,276.5C 586.536,250.3 603.703,234.466 630.5,229C 658.139,227.581 685.806,227.081 713.5,227.5C 713.5,212.167 713.5,196.833 713.5,181.5 Z M 636.5,245.5 C 662.167,245.5 687.833,245.5 713.5,245.5C 713.5,294.833 713.5,344.167 713.5,393.5C 684.831,393.667 656.165,393.5 627.5,393C 610.76,390.924 600.26,381.757 596,365.5C 595.333,337.167 595.333,308.833 596,280.5C 602.864,261.135 616.364,249.469 636.5,245.5 Z"/></g>
<g><path style="opacity:0.94" fill="#000000" d="M 1566.5,189.5 C 1567.04,189.56 1567.38,189.893 1567.5,190.5C 1561.64,204.292 1557.8,218.625 1556,233.5C 1555.33,268.5 1555.33,303.5 1556,338.5C 1571.32,325.848 1585.98,312.515 1600,298.5C 1601.95,294.688 1601.62,291.021 1599,287.5C 1595.96,284.067 1592.46,281.234 1588.5,279C 1613.51,278.167 1638.51,278.334 1663.5,279.5C 1651.79,283.857 1640.45,289.023 1629.5,295C 1617.54,304.626 1605.87,314.626 1594.5,325C 1607.67,342.833 1620.83,360.667 1634,378.5C 1645.3,390.393 1658.14,400.227 1672.5,408C 1649.17,408.667 1625.83,408.667 1602.5,408C 1606.95,405.217 1611.12,402.05 1615,398.5C 1616.77,396.119 1617.93,393.452 1618.5,390.5C 1616.69,384.882 1613.86,379.882 1610,375.5C 1600.4,362.614 1590.56,349.947 1580.5,337.5C 1572.18,344.648 1564.02,351.981 1556,359.5C 1555.33,368.167 1555.33,376.833 1556,385.5C 1556.88,391.764 1559.71,396.931 1564.5,401C 1568.71,403.602 1573.04,405.936 1577.5,408C 1557.83,408.667 1538.17,408.667 1518.5,408C 1524.51,405.321 1530.01,401.821 1535,397.5C 1535.86,395.913 1536.53,394.246 1537,392.5C 1538.13,367.863 1538.63,343.197 1538.5,318.5C 1538.61,292.479 1538.11,266.479 1537,240.5C 1534.54,230.036 1528.04,223.536 1517.5,221C 1528.22,217.984 1538.55,213.984 1548.5,209C 1555.75,203.583 1561.75,197.083 1566.5,189.5 Z"/></g>
<g><path style="opacity:0.705" fill="#000000" d="M 1684.5,194.5 C 1710.72,191.582 1727.89,202.582 1736,227.5C 1739.25,254.188 1728.08,271.354 1702.5,279C 1676.75,281.88 1659.91,271.047 1652,246.5C 1648.89,220.169 1659.72,202.836 1684.5,194.5 Z M 1690.5,196.5 C 1716.51,197.674 1731.17,211.174 1734.5,237C 1731.66,261.172 1718.16,274.672 1694,277.5C 1669.83,274.665 1656.33,261.165 1653.5,237C 1656,214.34 1668.33,200.84 1690.5,196.5 Z M 1680.5,214.5 C 1687.17,214.334 1693.84,214.5 1700.5,215C 1707.09,219.537 1708.59,225.371 1705,232.5C 1703.79,234.049 1702.29,235.215 1700.5,236C 1693.84,236.5 1687.17,236.666 1680.5,236.5C 1680.5,229.167 1680.5,221.833 1680.5,214.5 Z"/></g>
<g><path style="opacity:0.987" fill="#db632b" d="M 791.5,202.5 C 796.167,202.5 800.833,202.5 805.5,202.5C 804.142,273.16 802.975,343.826 802,414.5C 801.828,419.202 801.328,423.868 800.5,428.5C 798.677,427.253 796.677,426.586 794.5,426.5C 793.05,351.843 792.05,277.176 791.5,202.5 Z"/></g>
<g><path style="opacity:0.855" fill="#000000" d="M 1675.5,208.5 C 1684.9,208.114 1694.23,208.614 1703.5,210C 1712.88,216.538 1715.05,225.038 1710,235.5C 1707.75,238.029 1705.25,240.196 1702.5,242C 1706.49,248.317 1710.49,254.65 1714.5,261C 1712.17,261.667 1709.83,261.667 1707.5,261C 1703.75,254.828 1699.75,248.828 1695.5,243C 1690.51,242.501 1685.51,242.334 1680.5,242.5C 1680.5,248.833 1680.5,255.167 1680.5,261.5C 1678.83,261.5 1677.17,261.5 1675.5,261.5C 1675.5,243.833 1675.5,226.167 1675.5,208.5 Z M 1680.5,214.5 C 1680.5,221.833 1680.5,229.167 1680.5,236.5C 1687.17,236.666 1693.84,236.5 1700.5,236C 1702.29,235.215 1703.79,234.049 1705,232.5C 1708.59,225.371 1707.09,219.537 1700.5,215C 1693.84,214.5 1687.17,214.334 1680.5,214.5 Z"/></g>
<g><path style="opacity:0.988" fill="#db632b" d="M 307.5,227.5 C 326.503,227.333 345.503,227.5 364.5,228C 392.984,232.14 403.151,247.974 395,275.5C 390.962,282.544 385.796,288.711 379.5,294C 345.167,321 310.833,348 276.5,375C 275.549,375.718 275.383,376.551 276,377.5C 283.926,386.214 293.759,391.38 305.5,393C 336.498,393.5 367.498,393.667 398.5,393.5C 398.5,399.5 398.5,405.5 398.5,411.5C 368.498,411.667 338.498,411.5 308.5,411C 277.367,407.687 256.867,391.187 247,361.5C 246.147,357.531 245.481,353.531 245,349.5C 244.333,329.5 244.333,309.5 245,289.5C 251.139,253.86 271.972,233.194 307.5,227.5 Z M 305.5,245.5 C 325.836,245.333 346.169,245.5 366.5,246C 378.648,249.133 382.815,256.633 379,268.5C 376.861,271.939 374.361,275.106 371.5,278C 336.5,305.167 301.5,332.333 266.5,359.5C 263.49,354.632 261.99,349.299 262,343.5C 261.333,327.167 261.333,310.833 262,294.5C 265.106,267.902 279.606,251.569 305.5,245.5 Z"/></g>
<g><path style="opacity:0.983" fill="#db632b" d="M 474.5,227.5 C 493.17,227.333 511.836,227.5 530.5,228C 550.567,229.236 562.234,239.736 565.5,259.5C 564.353,273.295 558.353,284.461 547.5,293C 513.5,319.667 479.5,346.333 445.5,373C 443.671,374.113 442.837,375.613 443,377.5C 450.685,385.927 460.185,391.094 471.5,393C 502.832,393.5 534.165,393.667 565.5,393.5C 565.5,399.5 565.5,405.5 565.5,411.5C 535.165,411.667 504.832,411.5 474.5,411C 440.124,406.561 419.29,387.394 412,353.5C 411.333,330.833 411.333,308.167 412,285.5C 416.941,259.893 431.441,242.059 455.5,232C 461.832,229.905 468.165,228.405 474.5,227.5 Z M 471.5,245.5 C 493.22,245.044 514.887,245.544 536.5,247C 546.2,250.756 549.367,257.59 546,267.5C 543.252,272.252 539.752,276.419 535.5,280C 501.243,306.713 467.076,333.546 433,360.5C 431.053,356.716 429.72,352.716 429,348.5C 428.333,328.833 428.333,309.167 429,289.5C 433.565,265.436 447.732,250.77 471.5,245.5 Z"/></g>
<g><path style="opacity:0.984" fill="#db632b" d="M 916.5,227.5 C 935.17,227.333 953.836,227.5 972.5,228C 992.568,229.237 1004.23,239.737 1007.5,259.5C 1006.35,273.292 1000.35,284.459 989.5,293C 954.096,320.363 919.096,348.196 884.5,376.5C 891.967,385.575 901.634,391.075 913.5,393C 944.832,393.5 976.165,393.667 1007.5,393.5C 1007.5,399.5 1007.5,405.5 1007.5,411.5C 977.165,411.667 946.832,411.5 916.5,411C 882.115,406.558 861.281,387.392 854,353.5C 853.333,330.833 853.333,308.167 854,285.5C 858.941,259.893 873.441,242.059 897.5,232C 903.832,229.905 910.165,228.405 916.5,227.5 Z M 913.5,245.5 C 935.22,245.044 956.887,245.544 978.5,247C 989.005,251.508 991.838,259.008 987,269.5C 984.203,273.299 981.036,276.799 977.5,280C 943.243,306.713 909.076,333.546 875,360.5C 872.867,356.768 871.534,352.768 871,348.5C 870.333,328.833 870.333,309.167 871,289.5C 875.565,265.436 889.732,250.77 913.5,245.5 Z"/></g>
<g><path style="opacity:0.944" fill="#000000" d="M 1434.5,271.5 C 1435.33,278.321 1435.83,285.321 1436,292.5C 1454.11,272.344 1475.28,268.177 1499.5,280C 1513.3,292.294 1517.8,307.461 1513,325.5C 1504.56,347.304 1489.06,355.137 1466.5,349C 1450.08,340.088 1445.92,327.254 1454,310.5C 1461.74,303.911 1469.41,303.911 1477,310.5C 1481.42,321.635 1477.59,327.968 1465.5,329.5C 1475.15,339.971 1484.99,339.971 1495,329.5C 1503.33,316.116 1501.83,303.949 1490.5,293C 1477.75,286.743 1465.75,288.077 1454.5,297C 1444.92,304.983 1439.09,315.15 1437,327.5C 1435.46,344.802 1435.12,362.135 1436,379.5C 1437.14,389.631 1441.97,397.465 1450.5,403C 1453.66,404.413 1456.66,406.08 1459.5,408C 1438.17,408.667 1416.83,408.667 1395.5,408C 1402.51,404.66 1408.67,400.16 1414,394.5C 1415.94,390.354 1417.27,386.021 1418,381.5C 1418.67,353.833 1418.67,326.167 1418,298.5C 1417.75,295.246 1416.75,292.246 1415,289.5C 1410.63,284.742 1405.8,280.575 1400.5,277C 1406.8,276.058 1413.14,275.391 1419.5,275C 1424.76,274.386 1429.76,273.219 1434.5,271.5 Z"/></g>
<g><path style="opacity:0.948" fill="#000000" d="M 1309.5,273.5 C 1340.37,271.186 1364.2,282.852 1381,308.5C 1392.97,333.4 1391.97,357.734 1378,381.5C 1354.72,410.231 1325.55,418.398 1290.5,406C 1257.48,389.13 1244.32,362.296 1251,325.5C 1259.72,295.942 1279.22,278.609 1309.5,273.5 Z M 1315.5,290.5 C 1339.76,290.292 1357.26,300.958 1368,322.5C 1377.07,355.52 1365.91,378.686 1334.5,392C 1304.79,398.227 1283.29,387.727 1270,360.5C 1261.72,331.238 1270.89,309.405 1297.5,295C 1303.48,292.839 1309.48,291.339 1315.5,290.5 Z"/></g>
<g><path style="opacity:0.93" fill="#000000" d="M 1018.5,275.5 C 1037.84,275.167 1057.18,275.5 1076.5,276.5C 1056.03,284.684 1049.53,299.351 1057,320.5C 1059.94,341.6 1066.27,361.6 1076,380.5C 1091.31,400.691 1103.31,398.691 1112,374.5C 1121.16,349.56 1124.49,323.893 1122,297.5C 1121.26,290.856 1118.09,285.689 1112.5,282C 1109.27,279.933 1105.94,278.1 1102.5,276.5C 1120.82,275.334 1139.16,275.167 1157.5,276C 1151.11,279.097 1145.61,283.264 1141,288.5C 1136.82,317.948 1140.16,346.615 1151,374.5C 1153.63,382.117 1158.13,388.284 1164.5,393C 1170.19,395.357 1175.36,394.524 1180,390.5C 1184.1,385.295 1187.44,379.628 1190,373.5C 1200.1,346.99 1204.77,319.657 1204,291.5C 1202.6,288.098 1200.43,285.264 1197.5,283C 1193.83,280.833 1190.17,278.667 1186.5,276.5C 1204.17,275.167 1221.83,275.167 1239.5,276.5C 1232.85,280.406 1227.68,285.739 1224,292.5C 1219.75,311.771 1215.75,331.104 1212,350.5C 1208.11,371.766 1199.28,390.599 1185.5,407C 1175.2,414.257 1164.86,414.257 1154.5,407C 1150.06,402.622 1146.23,397.788 1143,392.5C 1138.35,382.873 1134.68,372.873 1132,362.5C 1128.65,376.549 1122.99,389.549 1115,401.5C 1101.05,415.781 1086.72,416.115 1072,402.5C 1060.89,387.865 1053.22,371.531 1049,353.5C 1044.56,332.507 1040.22,311.507 1036,290.5C 1034.22,287.048 1031.72,284.214 1028.5,282C 1024.51,280.528 1021.18,278.361 1018.5,275.5 Z"/></g>
<g><path style="opacity:0.932" fill="#000000" d="M 1316.5,328.5 C 1328.63,329.138 1333.46,335.471 1331,347.5C 1327.34,354.07 1321.84,356.237 1314.5,354C 1306.54,349.617 1304.37,343.117 1308,334.5C 1310.32,331.605 1313.16,329.605 1316.5,328.5 Z"/></g>
<g><path style="opacity:0.923" fill="#000000" d="M 420.5,469.5 C 423.5,469.5 426.5,469.5 429.5,469.5C 429.5,474.833 429.5,480.167 429.5,485.5C 435.5,485.5 441.5,485.5 447.5,485.5C 447.5,487.5 447.5,489.5 447.5,491.5C 441.5,491.5 435.5,491.5 429.5,491.5C 429.333,510.17 429.5,528.836 430,547.5C 431.833,552 435,555.167 439.5,557C 445.742,558.37 452.075,558.87 458.5,558.5C 458.5,560.833 458.5,563.167 458.5,565.5C 446.979,567.112 436.313,564.946 426.5,559C 424.641,557.442 423.141,555.609 422,553.5C 420.525,525.564 420.025,497.564 420.5,469.5 Z"/></g>
<g><path style="opacity:0.914" fill="#000000" d="M 662.5,469.5 C 665.5,469.5 668.5,469.5 671.5,469.5C 671.975,497.564 671.475,525.564 670,553.5C 666.936,558.789 662.436,562.289 656.5,564C 644.558,565.581 632.558,565.915 620.5,565C 611.9,563.134 605.733,558.3 602,550.5C 601.333,533.5 601.333,516.5 602,499.5C 605.138,491.502 610.972,486.668 619.5,485C 631.593,482.738 643.593,483.072 655.5,486C 657.746,487.039 659.913,488.206 662,489.5C 662.5,482.842 662.666,476.175 662.5,469.5 Z M 626.5,490.5 C 634.571,490.137 642.571,490.637 650.5,492C 654.862,493.372 658.362,495.872 661,499.5C 662.621,515.433 662.954,531.433 662,547.5C 660.167,552 657,555.167 652.5,557C 642.908,558.587 633.242,558.92 623.5,558C 618.288,556.983 614.455,554.149 612,549.5C 610.38,533.901 610.047,518.234 611,502.5C 614.048,495.603 619.215,491.603 626.5,490.5 Z"/></g>
<g><path style="opacity:0.868" fill="#000000" d="M 714.5,469.5 C 717.833,469.5 721.167,469.5 724.5,469.5C 724.5,474.833 724.5,480.167 724.5,485.5C 730.167,485.5 735.833,485.5 741.5,485.5C 741.5,487.5 741.5,489.5 741.5,491.5C 735.833,491.5 730.167,491.5 724.5,491.5C 724.333,510.503 724.5,529.503 725,548.5C 727.007,552.593 730.173,555.427 734.5,557C 740.407,558.361 746.407,558.861 752.5,558.5C 752.5,560.833 752.5,563.167 752.5,565.5C 741.815,566.863 731.815,565.029 722.5,560C 719.96,557.795 717.793,555.295 716,552.5C 714.534,524.884 714.034,497.217 714.5,469.5 Z"/></g>
<g><path style="opacity:0.921" fill="#000000" d="M 1391.5,469.5 C 1394.5,469.5 1397.5,469.5 1400.5,469.5C 1400.17,476.2 1400.5,482.866 1401.5,489.5C 1411.44,483.955 1422.11,482.122 1433.5,484C 1444.58,484.115 1452.74,488.948 1458,498.5C 1458.5,520.831 1458.67,543.164 1458.5,565.5C 1455.5,565.5 1452.5,565.5 1449.5,565.5C 1449.67,544.497 1449.5,523.497 1449,502.5C 1446.14,495.644 1440.97,491.811 1433.5,491C 1424.53,489.702 1415.86,490.702 1407.5,494C 1404.13,496.365 1401.96,499.532 1401,503.5C 1400.5,524.164 1400.33,544.831 1400.5,565.5C 1397.5,565.5 1394.5,565.5 1391.5,565.5C 1391.5,533.5 1391.5,501.5 1391.5,469.5 Z"/></g>
<g><path style="opacity:0.908" fill="#000000" d="M 538.5,483.5 C 547.546,483.236 556.546,483.736 565.5,485C 574.137,486.878 580.304,491.711 584,499.5C 584.667,516.5 584.667,533.5 584,550.5C 580.304,558.289 574.137,563.122 565.5,565C 554.833,565.667 544.167,565.667 533.5,565C 525.079,563.544 518.912,559.044 515,551.5C 514.333,539.833 514.333,528.167 515,516.5C 518.672,509.242 524.505,504.742 532.5,503C 543.167,502.333 553.833,502.333 564.5,503C 568.161,503.829 571.495,505.329 574.5,507.5C 575.134,499.587 571.467,494.421 563.5,492C 555.227,490.67 546.893,490.17 538.5,490.5C 538.5,488.167 538.5,485.833 538.5,483.5 Z M 540.5,508.5 C 570.325,504.493 581.825,517.159 575,546.5C 573.077,552.721 568.91,556.554 562.5,558C 528.195,564.695 515.695,551.195 525,517.5C 529.29,512.779 534.457,509.779 540.5,508.5 Z"/></g>
<g><path style="opacity:0.933" fill="#000000" d="M 688.5,483.5 C 691.5,483.5 694.5,483.5 697.5,483.5C 697.5,510.833 697.5,538.167 697.5,565.5C 694.5,565.5 691.5,565.5 688.5,565.5C 688.5,538.167 688.5,510.833 688.5,483.5 Z"/></g>
<g><path style="opacity:0.84" fill="#000000" d="M 768.5,483.5 C 771.833,483.5 775.167,483.5 778.5,483.5C 778.5,510.833 778.5,538.167 778.5,565.5C 775.167,565.5 771.833,565.5 768.5,565.5C 768.5,538.167 768.5,510.833 768.5,483.5 Z"/></g>
<g><path style="opacity:0.907" fill="#000000" d="M 819.5,483.5 C 828.879,483.224 838.212,483.724 847.5,485C 854.492,486.742 859.992,490.575 864,496.5C 865.626,514.434 865.959,532.434 865,550.5C 861.267,558.3 855.1,563.134 846.5,565C 835.833,565.667 825.167,565.667 814.5,565C 806.079,563.544 799.912,559.044 796,551.5C 795.333,533.5 795.333,515.5 796,497.5C 801.615,489.109 809.448,484.442 819.5,483.5 Z M 820.5,490.5 C 828.571,490.137 836.571,490.637 844.5,492C 849.208,493.378 852.708,496.212 855,500.5C 856.619,515.765 856.952,531.099 856,546.5C 854.594,551.573 851.428,555.073 846.5,557C 836.908,558.587 827.242,558.92 817.5,558C 812.761,556.881 808.928,554.381 806,550.5C 804.378,534.234 804.045,517.9 805,501.5C 808.432,495.216 813.598,491.549 820.5,490.5 Z"/></g>
<g><path style="opacity:0.929" fill="#000000" d="M 907.5,483.5 C 916.546,483.236 925.546,483.736 934.5,485C 941.373,486.352 946.873,489.852 951,495.5C 952.469,518.768 952.969,542.101 952.5,565.5C 949.5,565.5 946.5,565.5 943.5,565.5C 943.667,544.164 943.5,522.831 943,501.5C 941.167,497.667 938.333,494.833 934.5,493C 923.167,489.667 911.833,489.667 900.5,493C 897.705,494.793 895.205,496.96 893,499.5C 891.532,521.434 891.032,543.434 891.5,565.5C 888.5,565.5 885.5,565.5 882.5,565.5C 882.333,543.164 882.5,520.831 883,498.5C 888.46,489.023 896.626,484.023 907.5,483.5 Z"/></g>
<g><path style="opacity:0.882" fill="#000000" d="M 994.5,483.5 C 1003.21,483.248 1011.88,483.748 1020.5,485C 1030.41,486.583 1036.91,492.083 1040,501.5C 1040.67,517.167 1040.67,532.833 1040,548.5C 1036.91,557.917 1030.41,563.417 1020.5,565C 1010.17,565.667 999.833,565.667 989.5,565C 979.996,563.486 973.496,558.319 970,549.5C 969.333,539.167 969.333,528.833 970,518.5C 973.208,509.957 979.374,504.79 988.5,503C 999.167,502.333 1009.83,502.333 1020.5,503C 1023.86,504.099 1027.03,505.599 1030,507.5C 1030.92,500.501 1028.08,495.667 1021.5,493C 1012.65,490.788 1003.65,489.954 994.5,490.5C 994.5,488.167 994.5,485.833 994.5,483.5 Z M 996.5,508.5 C 1003.9,508.2 1011.23,508.7 1018.5,510C 1023.84,511.41 1027.67,514.577 1030,519.5C 1030.67,529.167 1030.67,538.833 1030,548.5C 1027.28,553.551 1023.11,556.718 1017.5,558C 985.042,564.543 972.542,551.71 980,519.5C 983.602,512.951 989.102,509.285 996.5,508.5 Z"/></g>
<g><path style="opacity:0.913" fill="#000000" d="M 1057.5,483.5 C 1060.5,483.5 1063.5,483.5 1066.5,483.5C 1066.33,505.169 1066.5,526.836 1067,548.5C 1069.72,553.551 1073.89,556.718 1079.5,558C 1086.16,558.5 1092.83,558.666 1099.5,558.5C 1099.5,560.833 1099.5,563.167 1099.5,565.5C 1090.76,565.876 1082.1,565.376 1073.5,564C 1066.23,562.394 1061.06,558.227 1058,551.5C 1057.5,528.836 1057.33,506.169 1057.5,483.5 Z"/></g>
<g><path style="opacity:0.927" fill="#000000" d="M 1185.5,483.5 C 1192.5,483.5 1199.5,483.5 1206.5,483.5C 1206.5,485.833 1206.5,488.167 1206.5,490.5C 1199.49,490.334 1192.49,490.5 1185.5,491C 1171.01,494.514 1165.68,503.681 1169.5,518.5C 1179.17,518.5 1188.83,518.5 1198.5,518.5C 1198.5,520.5 1198.5,522.5 1198.5,524.5C 1188.83,524.5 1179.17,524.5 1169.5,524.5C 1169.5,538.167 1169.5,551.833 1169.5,565.5C 1166.5,565.5 1163.5,565.5 1160.5,565.5C 1160.33,543.164 1160.5,520.831 1161,498.5C 1166.46,489.023 1174.63,484.023 1185.5,483.5 Z"/></g>
<g><path style="opacity:0.908" fill="#000000" d="M 1242.5,483.5 C 1251.55,483.236 1260.55,483.736 1269.5,485C 1277.96,486.468 1284.12,490.968 1288,498.5C 1288.67,516.167 1288.67,533.833 1288,551.5C 1284.09,559.044 1277.92,563.544 1269.5,565C 1258.83,565.667 1248.17,565.667 1237.5,565C 1221.54,560.774 1215.21,550.441 1218.5,534C 1214.94,517.936 1220.94,507.603 1236.5,503C 1247.5,502.333 1258.5,502.333 1269.5,503C 1272.86,504.099 1276.03,505.599 1279,507.5C 1279.57,500.726 1276.74,495.892 1270.5,493C 1261.32,490.773 1251.98,489.94 1242.5,490.5C 1242.5,488.167 1242.5,485.833 1242.5,483.5 Z M 1245.5,508.5 C 1275.39,505.229 1286.55,518.229 1279,547.5C 1276.67,553.164 1272.5,556.664 1266.5,558C 1232.73,564.897 1220.23,551.731 1229,518.5C 1230.12,516.376 1231.62,514.543 1233.5,513C 1237.43,510.972 1241.43,509.472 1245.5,508.5 Z"/></g>
<g><path style="opacity:0.874" fill="#000000" d="M 1328.5,483.5 C 1340.06,482.755 1351.4,483.922 1362.5,487C 1366.43,489.424 1368.43,492.924 1368.5,497.5C 1362.56,498.565 1357.9,496.731 1354.5,492C 1343.83,490 1333.17,490 1322.5,492C 1317.56,495.958 1317.23,500.291 1321.5,505C 1334.14,506.045 1346.81,507.045 1359.5,508C 1367.37,510.535 1372.53,515.701 1375,523.5C 1375.67,532.167 1375.67,540.833 1375,549.5C 1371.48,558.351 1364.98,563.518 1355.5,565C 1345.17,565.667 1334.83,565.667 1324.5,565C 1306.71,560.287 1300.05,548.787 1304.5,530.5C 1307.83,530.5 1311.17,530.5 1314.5,530.5C 1314.33,536.509 1314.5,542.509 1315,548.5C 1317.62,553.116 1321.45,556.283 1326.5,558C 1335.5,558.667 1344.5,558.667 1353.5,558C 1358.55,556.283 1362.38,553.116 1365,548.5C 1365.67,540.167 1365.67,531.833 1365,523.5C 1362.28,518.449 1358.11,515.282 1352.5,514C 1342.5,513.667 1332.5,513.333 1322.5,513C 1309.38,509.595 1305.88,501.762 1312,489.5C 1317.15,486.175 1322.65,484.175 1328.5,483.5 Z"/></g>
<g><path style="opacity:0.865" fill="#000000" d="M 1475.5,483.5 C 1478.83,483.5 1482.17,483.5 1485.5,483.5C 1485.5,510.833 1485.5,538.167 1485.5,565.5C 1482.17,565.5 1478.83,565.5 1475.5,565.5C 1475.5,538.167 1475.5,510.833 1475.5,483.5 Z"/></g>
<g><path style="opacity:0.891" fill="#000000" d="M 1526.5,483.5 C 1535.88,483.224 1545.21,483.724 1554.5,485C 1561.49,486.742 1566.99,490.575 1571,496.5C 1572.63,514.101 1572.96,531.767 1572,549.5C 1568.56,558.327 1562.06,563.493 1552.5,565C 1542.17,565.667 1531.83,565.667 1521.5,565C 1513.08,563.544 1506.91,559.044 1503,551.5C 1501.89,542.558 1501.39,533.558 1501.5,524.5C 1501.39,515.442 1501.89,506.442 1503,497.5C 1504.46,493.74 1506.96,490.907 1510.5,489C 1515.59,486.028 1520.92,484.195 1526.5,483.5 Z M 1527.5,490.5 C 1535.57,490.137 1543.57,490.637 1551.5,492C 1556.21,493.378 1559.71,496.212 1562,500.5C 1563.6,515.445 1563.93,530.445 1563,545.5C 1561.6,550.799 1558.43,554.632 1553.5,557C 1543.91,558.587 1534.24,558.92 1524.5,558C 1518.89,556.718 1514.72,553.551 1512,548.5C 1511.33,532.833 1511.33,517.167 1512,501.5C 1515.38,495.282 1520.55,491.615 1527.5,490.5 Z"/></g>
<g><path style="opacity:0.929" fill="#000000" d="M 1614.5,483.5 C 1623.55,483.236 1632.55,483.736 1641.5,485C 1649.67,486.507 1655.5,491.007 1659,498.5C 1659.5,520.831 1659.67,543.164 1659.5,565.5C 1656.5,565.5 1653.5,565.5 1650.5,565.5C 1650.97,543.434 1650.47,521.434 1649,499.5C 1642.47,492.317 1634.3,489.317 1624.5,490.5C 1614.7,489.317 1606.53,492.317 1600,499.5C 1598.53,521.434 1598.03,543.434 1598.5,565.5C 1595.5,565.5 1592.5,565.5 1589.5,565.5C 1589.33,543.164 1589.5,520.831 1590,498.5C 1595.46,489.023 1603.63,484.023 1614.5,483.5 Z"/></g>
<g><path style="opacity:0.915" fill="#000000" d="M 472.5,485.5 C 475.5,485.5 478.5,485.5 481.5,485.5C 481.343,486.873 481.51,488.207 482,489.5C 484.795,487.354 487.961,486.187 491.5,486C 498.826,485.5 506.159,485.334 513.5,485.5C 513.5,488.5 513.5,491.5 513.5,494.5C 504.653,493.874 495.986,494.707 487.5,497C 485.622,498.543 484.122,500.376 483,502.5C 481.545,523.78 481.045,545.113 481.5,566.5C 478.5,566.5 475.5,566.5 472.5,566.5C 472.5,539.5 472.5,512.5 472.5,485.5 Z"/></g>
</svg>
